<svg width="24" height="24" viewBox="0 0 24 24" fill="none" xmlns="http://www.w3.org/2000/svg">
  <path d="M4 12C4 8.5 6.5 6 10 6C11.5 6 12.8 6.7 13.6 7.8C14.2 6.7 15.1 5.8 16.2 5.2C17.8 4.3 19.7 4.1 21.5 4.5C21.8 4.6 22 4.9 22 5.2V11.8C22 12.1 21.8 12.4 21.5 12.5C19.7 12.9 17.8 12.7 16.2 11.8C15.1 11.2 14.2 10.3 13.6 9.2C12.8 10.3 11.5 11 10 11C6.5 11 4 8.5 4 5V12Z" fill="currentColor"/>
  <path d="M10 13C11.5 13 12.8 13.7 13.6 14.8C14.2 13.7 15.1 12.8 16.2 12.2C17.8 11.3 19.7 11.1 21.5 11.5C21.8 11.6 22 11.9 22 12.2V18.8C22 19.1 21.8 19.4 21.5 19.5C19.7 19.9 17.8 19.7 16.2 18.8C15.1 18.2 14.2 17.3 13.6 16.2C12.8 17.3 11.5 18 10 18C6.5 18 4 15.5 4 12C4 15.5 6.5 18 10 18Z" fill="currentColor" opacity="0.7"/>
  <path d="M2 6C2 5.4 2.4 5 3 5H5C5.6 5 6 5.4 6 6V18C6 18.6 5.6 19 5 19H3C2.4 19 2 18.6 2 18V6Z" fill="currentColor" opacity="0.9"/>
</svg>